<?xml version="1.0" encoding="UTF-8" standalone="no"?>
<!DOCTYPE svg PUBLIC "-//W3C//DTD SVG 1.1//EN" "http://www.w3.org/Graphics/SVG/1.1/DTD/svg11.dtd">
<svg width="100%" height="100%" viewBox="0 0 2262 219" version="1.1" xmlns="http://www.w3.org/2000/svg" xmlns:xlink="http://www.w3.org/1999/xlink" xml:space="preserve" xmlns:serif="http://www.serif.com/" style="fill-rule:evenodd;clip-rule:evenodd;stroke-linejoin:round;stroke-miterlimit:2;">
    <g transform="matrix(1,0,0,1,-111.62623,-562)">
        <g transform="matrix(1.937746,0,0,0.258797,-585.199311,418.108967)">
            <path d="M359.606,1193.566L359.606,573.71L388.699,573.71C398.397,573.71 406.38,586.55 412.648,612.23C418.916,637.909 423.568,673.92 426.603,720.262C429.639,766.603 431.156,821.062 431.156,883.638C431.156,945.624 429.639,999.935 426.603,1046.571C423.568,1093.208 418.916,1129.366 412.648,1155.046C406.38,1180.726 398.397,1193.566 388.699,1193.566L359.606,1193.566ZM376.163,1087.305L387.753,1087.305C394.455,1087.305 399.718,1079.188 403.542,1062.953C407.365,1046.719 410.105,1023.401 411.761,992.998C413.417,962.596 414.244,926.142 414.244,883.638C414.244,841.134 413.417,804.533 411.761,773.835C410.105,743.137 407.365,719.671 403.542,703.437C399.718,687.203 394.455,679.086 387.753,679.086L376.163,679.086L376.163,1087.305Z" style="fill:white;fill-rule:nonzero;"/>
            <path d="M466.636,1204.192C460.565,1204.192 455.203,1194.599 450.552,1175.413C445.9,1156.227 442.273,1129.662 439.671,1095.717C437.07,1061.773 435.769,1022.663 435.769,978.387C435.769,932.931 437.05,892.493 439.612,857.073C442.175,821.652 445.782,793.906 450.433,773.835C455.085,753.763 460.486,743.728 466.636,743.728C472.47,743.728 477.634,753.173 482.128,772.064C486.622,790.955 490.131,816.782 492.654,849.546C495.177,882.31 496.438,919.649 496.438,961.563L496.438,981.487C496.438,988.866 496.359,996.393 496.202,1004.067L447.595,1004.067L447.595,929.684L479.645,929.684C479.408,903.709 478.088,882.9 475.683,867.256C473.278,851.612 470.302,843.79 466.754,843.79C464.073,843.79 461.609,848.218 459.362,857.073C457.115,865.928 455.341,879.358 454.04,897.363C452.74,915.369 452.089,938.244 452.089,965.99L452.089,991.67C452.089,1014.103 452.7,1033.732 453.922,1050.556C455.144,1067.381 456.839,1080.368 459.008,1089.519C461.176,1098.669 463.679,1103.244 466.517,1103.244C469.277,1103.244 471.603,1098.669 473.495,1089.519C475.387,1080.368 476.846,1068.414 477.871,1053.656L494.783,1053.656C493.679,1081.992 491.806,1107.524 489.165,1130.252C486.524,1152.98 483.291,1170.985 479.467,1184.268C475.643,1197.551 471.366,1204.192 466.636,1204.192Z" style="fill:white;fill-rule:nonzero;"/>
            <path d="M524.94,1204.192C517.056,1204.192 510.591,1190.319 505.545,1162.573C500.499,1134.827 497.66,1098.521 497.03,1053.656L513.941,1053.656C514.493,1070.775 515.834,1084.501 517.962,1094.832C520.091,1105.163 522.614,1110.328 525.531,1110.328C528.764,1110.328 531.228,1106.048 532.923,1097.488C534.618,1088.928 535.466,1078.45 535.466,1066.053C535.466,1056.017 534.835,1047.9 533.573,1041.701C532.312,1035.503 530.144,1031.223 527.069,1028.861C525.965,1027.681 524.447,1025.91 522.516,1023.548C520.584,1021.187 519.027,1019.121 517.844,1017.35C514.533,1012.627 511.517,1004.805 508.797,993.884C506.077,982.962 503.928,968.499 502.352,950.494C500.775,932.489 499.986,910.498 499.986,884.523C499.986,844.971 501.957,811.617 505.899,784.461C509.842,757.305 515.637,743.728 523.284,743.728C531.011,743.728 537.102,756.42 541.556,781.805C546.011,807.189 548.514,842.314 549.066,887.18L533.1,887.18C532.864,871.241 531.799,859.139 529.907,850.874C528.015,842.609 525.847,838.477 523.403,838.477C520.407,838.477 518.16,842.314 516.662,849.989C515.164,857.663 514.415,867.108 514.415,878.325C514.415,896.625 516.859,909.023 521.747,915.516C522.457,916.107 523.462,917.14 524.763,918.616C526.064,920.091 527.404,921.567 528.784,923.043C530.163,924.519 531.248,925.847 532.036,927.028C534.401,929.389 536.707,933.374 538.954,938.982C541.201,944.59 543.212,952.117 544.986,961.563C546.76,971.008 548.159,983.405 549.184,998.754C550.209,1014.103 550.722,1032.994 550.722,1055.427C550.722,1084.943 549.736,1110.918 547.765,1133.351C545.794,1155.784 542.897,1173.199 539.073,1185.596C535.249,1197.993 530.538,1204.192 524.94,1204.192Z" style="fill:white;fill-rule:nonzero;"/>
            <path d="M558.409,1193.566L558.409,754.354L574.966,754.354L574.966,1193.566L558.409,1193.566ZM559.119,684.399L559.119,569.283L574.493,569.283L574.493,684.399L559.119,684.399Z" style="fill:white;fill-rule:nonzero;"/>
            <path d="M616.477,1399.004C611.51,1399.004 606.72,1392.953 602.108,1380.851C597.495,1368.749 593.573,1349.415 590.34,1322.85C587.108,1296.285 585.176,1261.75 584.545,1219.246L600.984,1219.246C601.615,1241.678 603.33,1259.389 606.129,1272.376C608.928,1285.363 612.259,1291.857 616.122,1291.857C618.882,1291.857 621.444,1287.577 623.809,1279.017C626.175,1270.457 628.067,1257.47 629.486,1240.055C630.905,1222.64 631.615,1200.355 631.615,1173.199L631.615,1120.069C630.432,1133.646 628.934,1146.044 627.121,1157.26C625.307,1168.476 623.159,1177.479 620.675,1184.268C618.192,1191.057 615.334,1194.451 612.101,1194.451C606.503,1194.451 601.477,1184.563 597.022,1164.787C592.568,1145.01 589.059,1118.002 586.497,1083.763C583.934,1049.523 582.653,1011.151 582.653,968.647C582.653,926.142 583.934,887.918 586.497,853.973C589.059,820.029 592.568,793.169 597.022,773.392C601.477,753.616 606.503,743.728 612.101,743.728C616.437,743.728 620.281,750.221 623.632,763.209C626.983,776.196 629.644,792.431 631.615,811.912L631.615,754.354L648.172,754.354L648.172,1166.115C648.172,1217.475 646.713,1260.422 643.796,1294.956C640.879,1329.491 637.015,1355.466 632.206,1372.881C627.397,1390.296 622.154,1399.004 616.477,1399.004ZM615.531,1087.305C618.763,1087.305 621.562,1081.992 623.927,1071.366C626.293,1060.74 628.146,1046.571 629.486,1028.861C630.826,1011.151 631.496,991.375 631.496,969.532C631.496,947.099 630.826,927.028 629.486,909.318C628.146,891.608 626.293,877.587 623.927,867.256C621.562,856.925 618.763,851.76 615.531,851.76C612.377,851.76 609.598,856.925 607.193,867.256C604.788,877.587 602.916,891.46 601.575,908.875C600.235,926.29 599.565,946.214 599.565,968.647C599.565,990.489 600.235,1010.413 601.575,1028.419C602.916,1046.424 604.788,1060.74 607.193,1071.366C609.598,1081.992 612.377,1087.305 615.531,1087.305Z" style="fill:white;fill-rule:nonzero;"/>
            <path d="M656.805,1193.566L656.805,754.354L673.362,754.354L673.362,818.996C675.254,795.973 677.836,777.672 681.108,764.094C684.38,750.517 688.224,743.728 692.639,743.728C700.05,743.728 705.727,761.29 709.669,796.415C713.611,831.541 715.583,882.162 715.583,948.28L715.583,1193.566L699.025,1193.566L699.025,959.792C699.025,923.781 698.06,896.183 696.128,876.997C694.196,857.811 691.141,848.218 686.962,848.218C683.02,848.218 679.768,858.696 677.206,879.653C674.643,900.61 673.362,929.684 673.362,966.876L673.362,1193.566L656.805,1193.566Z" style="fill:white;fill-rule:nonzero;"/>
            <path d="M753.191,1204.192C747.12,1204.192 741.758,1194.599 737.107,1175.413C732.455,1156.227 728.828,1129.662 726.226,1095.717C723.625,1061.773 722.324,1022.663 722.324,978.387C722.324,932.931 723.605,892.493 726.167,857.073C728.73,821.652 732.337,793.906 736.988,773.835C741.64,753.763 747.041,743.728 753.191,743.728C759.025,743.728 764.189,753.173 768.683,772.064C773.177,790.955 776.686,816.782 779.209,849.546C781.732,882.31 782.993,919.649 782.993,961.563L782.993,981.487C782.993,988.866 782.914,996.393 782.757,1004.067L734.15,1004.067L734.15,929.684L766.2,929.684C765.963,903.709 764.643,882.9 762.238,867.256C759.833,851.612 756.857,843.79 753.309,843.79C750.628,843.79 748.164,848.218 745.917,857.073C743.67,865.928 741.896,879.358 740.595,897.363C739.295,915.369 738.644,938.244 738.644,965.99L738.644,991.67C738.644,1014.103 739.255,1033.732 740.477,1050.556C741.699,1067.381 743.394,1080.368 745.563,1089.519C747.731,1098.669 750.234,1103.244 753.072,1103.244C755.832,1103.244 758.158,1098.669 760.05,1089.519C761.942,1080.368 763.401,1068.414 764.426,1053.656L781.338,1053.656C780.234,1081.992 778.361,1107.524 775.72,1130.252C773.079,1152.98 769.846,1170.985 766.022,1184.268C762.198,1197.551 757.921,1204.192 753.191,1204.192Z" style="fill:white;fill-rule:nonzero;"/>
            <path d="M789.971,1193.566L789.971,754.354L806.528,754.354L806.528,820.767C808.105,798.924 810.076,781.657 812.441,768.965C814.806,756.272 817.487,749.926 820.483,749.926L827.697,749.926L827.697,859.729L818.827,859.729C815.91,859.729 813.545,865.337 811.732,876.554C809.918,887.77 808.598,904.447 807.77,926.585C806.942,948.723 806.528,975.731 806.528,1007.609L806.528,1193.566L789.971,1193.566Z" style="fill:white;fill-rule:nonzero;"/>
            <path d="M930.469,1193.566L879.497,667.574L879.497,573.71L929.641,573.71L929.641,679.086L890.141,679.086L896.054,649.864L947.972,1193.566L930.469,1193.566ZM901.376,1198.879C895.542,1198.879 890.378,1190.614 885.883,1174.085C881.389,1157.555 877.861,1134.237 875.299,1104.129C872.736,1074.022 871.455,1038.897 871.455,998.754C871.455,939.13 874.037,892.788 879.202,859.729C884.366,826.67 891.324,810.141 900.075,810.141L904.451,810.141L904.451,891.608L902.204,891.608C897.631,891.608 894.004,901.053 891.324,919.944C888.643,938.835 887.303,963.924 887.303,995.212C887.303,1015.874 887.855,1033.732 888.958,1048.785C890.062,1063.839 891.698,1075.35 893.866,1083.32C896.035,1091.29 898.774,1095.274 902.086,1095.274C906.028,1095.274 909.556,1088.928 912.67,1076.236C915.785,1063.544 918.485,1047.014 920.772,1026.648C923.058,1006.281 924.99,983.848 926.566,959.349C928.143,934.85 929.365,910.794 930.233,887.18C931.1,863.566 931.652,842.609 931.888,824.309L946.198,824.309C945.883,855.007 944.957,887.623 943.419,922.158C941.882,956.692 939.792,990.342 937.151,1023.105C934.51,1055.869 931.376,1085.534 927.749,1112.099C924.122,1138.664 920.101,1159.769 915.686,1175.413C911.271,1191.057 906.501,1198.879 901.376,1198.879Z" style="fill:white;fill-rule:nonzero;"/>
            <path d="M992.558,1193.566L992.558,573.71L1021.651,573.71C1031.349,573.71 1039.332,586.55 1045.6,612.23C1051.868,637.909 1056.52,673.92 1059.555,720.262C1062.59,766.603 1064.108,821.062 1064.108,883.638C1064.108,945.624 1062.59,999.935 1059.555,1046.571C1056.52,1093.208 1051.868,1129.366 1045.6,1155.046C1039.332,1180.726 1031.349,1193.566 1021.651,1193.566L992.558,1193.566ZM1009.115,1087.305L1020.705,1087.305C1027.407,1087.305 1032.669,1079.188 1036.493,1062.953C1040.317,1046.719 1043.057,1023.401 1044.713,992.998C1046.368,962.596 1047.196,926.142 1047.196,883.638C1047.196,841.134 1046.368,804.533 1044.713,773.835C1043.057,743.137 1040.317,719.671 1036.493,703.437C1032.669,687.203 1027.407,679.086 1020.705,679.086L1009.115,679.086L1009.115,1087.305Z" style="fill:white;fill-rule:nonzero;"/>
            <path d="M1099.588,1204.192C1093.517,1204.192 1088.155,1194.599 1083.504,1175.413C1078.852,1156.227 1075.225,1129.662 1072.623,1095.717C1070.021,1061.773 1068.72,1022.663 1068.72,978.387C1068.72,932.931 1070.002,892.493 1072.564,857.073C1075.126,821.652 1078.734,793.906 1083.385,773.835C1088.037,753.763 1093.438,743.728 1099.588,743.728C1105.422,743.728 1110.586,753.173 1115.08,772.064C1119.574,790.955 1123.083,816.782 1125.606,849.546C1128.129,882.31 1129.39,919.649 1129.39,961.563L1129.39,981.487C1129.39,988.866 1129.311,996.393 1129.154,1004.067L1080.547,1004.067L1080.547,929.684L1112.597,929.684C1112.36,903.709 1111.039,882.9 1108.635,867.256C1106.23,851.612 1103.254,843.79 1099.706,843.79C1097.025,843.79 1094.561,848.218 1092.314,857.073C1090.067,865.928 1088.293,879.358 1086.992,897.363C1085.691,915.369 1085.041,938.244 1085.041,965.99L1085.041,991.67C1085.041,1014.103 1085.652,1033.732 1086.874,1050.556C1088.096,1067.381 1089.791,1080.368 1091.959,1089.519C1094.128,1098.669 1096.631,1103.244 1099.469,1103.244C1102.229,1103.244 1104.555,1098.669 1106.447,1089.519C1108.339,1080.368 1109.798,1068.414 1110.823,1053.656L1127.734,1053.656C1126.631,1081.992 1124.758,1107.524 1122.117,1130.252C1119.476,1152.98 1116.243,1170.985 1112.419,1184.268C1108.595,1197.551 1104.318,1204.192 1099.588,1204.192Z" style="fill:white;fill-rule:nonzero;"/>
            <path d="M1150.441,1193.566L1129.035,754.354L1146.42,754.354L1160.612,1076.679L1174.686,754.354L1191.952,754.354L1170.546,1193.566L1150.441,1193.566Z" style="fill:white;fill-rule:nonzero;"/>
            <path d="M1222.11,1204.192C1216.039,1204.192 1210.677,1194.599 1206.026,1175.413C1201.374,1156.227 1197.747,1129.662 1195.145,1095.717C1192.543,1061.773 1191.243,1022.663 1191.243,978.387C1191.243,932.931 1192.524,892.493 1195.086,857.073C1197.649,821.652 1201.256,793.906 1205.907,773.835C1210.559,753.763 1215.96,743.728 1222.11,743.728C1227.944,743.728 1233.108,753.173 1237.602,772.064C1242.096,790.955 1245.605,816.782 1248.128,849.546C1250.651,882.31 1251.912,919.649 1251.912,961.563L1251.912,981.487C1251.912,988.866 1251.833,996.393 1251.676,1004.067L1203.069,1004.067L1203.069,929.684L1235.119,929.684C1234.882,903.709 1233.562,882.9 1231.157,867.256C1228.752,851.612 1225.776,843.79 1222.228,843.79C1219.547,843.79 1217.083,848.218 1214.836,857.073C1212.589,865.928 1210.815,879.358 1209.514,897.363C1208.214,915.369 1207.563,938.244 1207.563,965.99L1207.563,991.67C1207.563,1014.103 1208.174,1033.732 1209.396,1050.556C1210.618,1067.381 1212.313,1080.368 1214.482,1089.519C1216.65,1098.669 1219.153,1103.244 1221.991,1103.244C1224.751,1103.244 1227.077,1098.669 1228.969,1089.519C1230.861,1080.368 1232.32,1068.414 1233.345,1053.656L1250.257,1053.656C1249.153,1081.992 1247.28,1107.524 1244.639,1130.252C1241.998,1152.98 1238.765,1170.985 1234.941,1184.268C1231.117,1197.551 1226.84,1204.192 1222.11,1204.192Z" style="fill:white;fill-rule:nonzero;"/>
            <rect x="1258.89" y="556" width="16.557" height="637.566" style="fill:white;fill-rule:nonzero;"/>
            <path d="M1313.765,1204.192C1307.851,1204.192 1302.51,1194.451 1297.74,1174.97C1292.97,1155.489 1289.185,1128.333 1286.386,1093.503C1283.587,1058.673 1282.188,1018.826 1282.188,973.96C1282.188,928.504 1283.587,888.508 1286.386,853.973C1289.185,819.439 1292.989,792.431 1297.799,772.949C1302.608,753.468 1307.93,743.728 1313.765,743.728C1319.678,743.728 1325.019,753.468 1329.789,772.949C1334.559,792.431 1338.344,819.439 1341.143,853.973C1343.942,888.508 1345.341,928.504 1345.341,973.96C1345.341,1018.826 1343.942,1058.673 1341.143,1093.503C1338.344,1128.333 1334.559,1155.489 1329.789,1174.97C1325.019,1194.451 1319.678,1204.192 1313.765,1204.192ZM1313.765,1097.045C1316.445,1097.045 1318.889,1092.47 1321.097,1083.32C1323.305,1074.17 1325.059,1060.444 1326.36,1042.144C1327.661,1023.843 1328.311,1001.115 1328.311,973.96C1328.311,946.804 1327.641,924.076 1326.301,905.776C1324.96,887.475 1323.206,873.75 1321.038,864.6C1318.87,855.449 1316.485,850.874 1313.883,850.874C1311.202,850.874 1308.758,855.449 1306.55,864.6C1304.343,873.75 1302.569,887.328 1301.229,905.333C1299.888,923.338 1299.218,946.214 1299.218,973.96C1299.218,1001.115 1299.869,1023.843 1301.169,1042.144C1302.47,1060.444 1304.225,1074.17 1306.432,1083.32C1308.64,1092.47 1311.084,1097.045 1313.765,1097.045Z" style="fill:white;fill-rule:nonzero;"/>
            <path d="M1352.319,1388.378L1352.319,754.354L1368.876,754.354L1368.876,814.568C1370.768,795.678 1373.232,779.148 1376.267,764.98C1379.303,750.812 1383.225,743.728 1388.035,743.728C1393.475,743.728 1398.363,753.763 1402.7,773.835C1407.036,793.906 1410.466,821.357 1412.989,856.187C1415.512,891.017 1416.773,930.57 1416.773,974.845C1416.773,1018.53 1415.512,1057.788 1412.989,1092.618C1410.466,1127.448 1407.036,1154.751 1402.7,1174.527C1398.363,1194.304 1393.475,1204.192 1388.035,1204.192C1383.698,1204.192 1379.934,1198.288 1376.74,1186.482C1373.547,1174.675 1370.926,1158.145 1368.876,1136.893L1368.876,1388.378L1352.319,1388.378ZM1384.132,1096.16C1387.207,1096.16 1389.947,1090.847 1392.351,1080.221C1394.756,1069.595 1396.629,1055.131 1397.969,1036.831C1399.309,1018.53 1399.979,997.869 1399.979,974.845C1399.979,951.232 1399.309,930.127 1397.969,911.531C1396.629,892.936 1394.756,878.325 1392.351,867.699C1389.947,857.073 1387.207,851.76 1384.132,851.76C1381.057,851.76 1378.337,857.073 1375.972,867.699C1373.606,878.325 1371.754,892.788 1370.413,911.089C1369.073,929.389 1368.403,950.346 1368.403,973.96C1368.403,997.573 1369.073,1018.53 1370.413,1036.831C1371.754,1055.131 1373.606,1069.595 1375.972,1080.221C1378.337,1090.847 1381.057,1096.16 1384.132,1096.16Z" style="fill:white;fill-rule:nonzero;"/>
            <path d="M1452.371,1204.192C1446.3,1204.192 1440.938,1194.599 1436.287,1175.413C1431.635,1156.227 1428.008,1129.662 1425.406,1095.717C1422.805,1061.773 1421.504,1022.663 1421.504,978.387C1421.504,932.931 1422.785,892.493 1425.347,857.073C1427.91,821.652 1431.517,793.906 1436.168,773.835C1440.82,753.763 1446.221,743.728 1452.371,743.728C1458.205,743.728 1463.369,753.173 1467.863,772.064C1472.357,790.955 1475.866,816.782 1478.389,849.546C1480.912,882.31 1482.173,919.649 1482.173,961.563L1482.173,981.487C1482.173,988.866 1482.094,996.393 1481.937,1004.067L1433.33,1004.067L1433.33,929.684L1465.38,929.684C1465.143,903.709 1463.823,882.9 1461.418,867.256C1459.013,851.612 1456.037,843.79 1452.489,843.79C1449.808,843.79 1447.344,848.218 1445.097,857.073C1442.85,865.928 1441.076,879.358 1439.775,897.363C1438.475,915.369 1437.824,938.244 1437.824,965.99L1437.824,991.67C1437.824,1014.103 1438.435,1033.732 1439.657,1050.556C1440.879,1067.381 1442.574,1080.368 1444.743,1089.519C1446.911,1098.669 1449.414,1103.244 1452.252,1103.244C1455.012,1103.244 1457.338,1098.669 1459.23,1089.519C1461.122,1080.368 1462.581,1068.414 1463.606,1053.656L1480.518,1053.656C1479.414,1081.992 1477.541,1107.524 1474.9,1130.252C1472.259,1152.98 1469.026,1170.985 1465.202,1184.268C1461.378,1197.551 1457.101,1204.192 1452.371,1204.192Z" style="fill:white;fill-rule:nonzero;"/>
            <path d="M1489.151,1193.566L1489.151,754.354L1505.708,754.354L1505.708,820.767C1507.285,798.924 1509.256,781.657 1511.621,768.965C1513.986,756.272 1516.667,749.926 1519.663,749.926L1526.877,749.926L1526.877,859.729L1518.007,859.729C1515.09,859.729 1512.725,865.337 1510.912,876.554C1509.098,887.77 1507.778,904.447 1506.95,926.585C1506.122,948.723 1505.708,975.731 1505.708,1007.609L1505.708,1193.566L1489.151,1193.566Z" style="fill:white;fill-rule:nonzero;"/>
        </g>
    </g>
</svg>
